<svg width="100" height="100" viewBox="0 0 100 100" fill="none" xmlns="http://www.w3.org/2000/svg">
<path d="M48.5644 52.4036C48.5216 50.1475 48.593 31.485 48.593 31.3137C48.6358 29.3432 47.1794 27.6726 45.2232 27.4298C44.2951 27.3156 43.3955 27.5298 42.6673 28.001C42.8243 25.645 42.9671 22.4893 42.8386 21.0329C42.5816 18.2628 40.4398 16.9634 38.5549 16.9206C37.7839 16.9063 36.97 17.1062 36.2418 17.5203L36.4988 15.407C36.8272 12.8083 34.9995 10.438 32.4007 10.0953L32.0009 10.0382C29.4022 9.70974 27.0319 11.5374 26.6892 14.1362L26.4036 16.4065C25.6611 15.5498 24.6187 14.9501 23.4193 14.793C20.8634 14.4646 18.793 16.0353 18.1219 18.8054C18.1219 18.8197 18.1076 18.8482 18.1076 18.8625L13.7811 46.6921L12.8387 53.5031L9.0262 45.3927C8.46933 44.179 6.9986 40.9377 3.64306 41.7516C1.14426 42.3656 -0.0551689 44.2932 0.00194662 47.6487C0.00194662 47.6773 0.00194662 47.6916 0.00194662 47.7201L0.0162253 47.8915V47.9058C0.930074 54.8596 6.69874 70.5949 6.94149 71.2517C8.555 75.8924 13.1671 79.5335 16.0086 81.4183V88.4292C16.0086 88.8576 16.3656 89.2146 16.7939 89.2146C17.2223 89.2146 17.5793 88.8576 17.5793 88.4292V82.4321L19.9638 83.9742C20.0923 84.0599 20.2494 84.1027 20.3922 84.1027C20.6492 84.1027 20.9062 83.9742 21.049 83.7458C21.2775 83.3745 21.1775 82.889 20.8206 82.6606L17.2223 80.3474C14.595 78.6482 9.96861 75.1499 8.42649 70.7377C8.36937 70.5664 2.47219 54.5026 1.57262 47.7201L1.55835 47.5916C1.51551 44.336 2.77205 43.5935 4.01431 43.2937C5.49932 42.9367 6.5274 43.7363 7.59831 46.0638L14.0809 59.8715C14.2666 60.257 14.7378 60.4283 15.1233 60.2427C15.5088 60.0571 15.6802 59.5859 15.4945 59.2004L14.0524 56.1304L15.3089 46.9348L19.6354 19.1624C20.1209 17.1919 21.4488 16.1495 23.1909 16.3637C24.0333 16.4779 24.7758 16.9063 25.2899 17.5774C25.8039 18.2485 26.0324 19.0767 25.9324 19.9049L22.6197 45.6069C22.5626 46.0352 22.8624 46.435 23.3051 46.4922C23.7335 46.5493 24.1333 46.2494 24.1904 45.8068L27.5031 20.119V20.1048L28.2456 14.3504C28.474 12.6226 30.059 11.3804 31.801 11.6088L32.2008 11.6659C33.0433 11.7802 33.7858 12.2085 34.2998 12.8797C34.8139 13.5508 35.0423 14.3789 34.9281 15.2214L34.3569 20.0191C34.2998 20.2333 34.257 20.4475 34.2284 20.6759L31.2584 46.0352C31.2013 46.4636 31.5155 46.8491 31.9438 46.9062C32.3722 46.9491 32.7577 46.6492 32.8148 46.2209L35.8991 20.3332C36.2989 19.0481 37.4555 18.4913 38.5121 18.5055C39.6687 18.5198 41.0823 19.2338 41.2679 21.19C41.4821 23.4889 40.8967 30.7425 40.8824 30.8139L39.1832 49.3336C39.1832 49.3622 39.1832 49.3765 39.1832 49.405C39.1832 49.8049 39.4831 50.1475 39.8972 50.1904C40.3255 50.2332 40.7111 49.9191 40.7539 49.4764L42.4531 30.971C42.6244 29.7145 43.7667 28.8292 45.0233 29.0005C46.1799 29.1433 47.0366 30.1428 47.0223 31.3137C47.0223 32.0848 46.9509 50.1761 46.9938 52.4607C47.008 53.2461 47.0509 53.96 47.1366 54.674C47.4364 57.1728 47.008 62.1704 46.5511 67.4536C46.4083 69.1527 46.2513 70.909 46.1228 72.6082C45.9228 75.207 45.2232 77.6915 44.038 79.9761L42.4674 82.9747C42.2675 83.3602 42.4102 83.8314 42.7958 84.0313C42.91 84.0885 43.0385 84.117 43.1527 84.117C43.4383 84.117 43.7096 83.96 43.8524 83.6887L43.9381 83.5316V89.4288C43.9381 89.8571 44.2951 90.2141 44.7234 90.2141C45.1518 90.2141 45.5088 89.8571 45.5088 89.4288V80.5187C46.751 78.0913 47.4792 75.464 47.6792 72.7225C47.8077 71.0376 47.9504 69.2813 48.0932 67.5821C48.5502 62.2132 48.9785 57.1299 48.6644 54.474C48.6216 53.8029 48.5787 53.1318 48.5644 52.4036Z" fill="black"/>
<path d="M96.3559 41.7516C93.0003 40.9377 91.5296 44.179 90.987 45.3784L87.1746 53.5031L86.2322 46.6778L81.9056 18.8625C81.9056 18.8482 81.8914 18.8197 81.8914 18.8054C81.2345 16.0353 79.1498 14.4646 76.5939 14.793C75.3802 14.9501 74.3378 15.5498 73.6096 16.4065L73.324 14.1362C72.9956 11.5374 70.611 9.70974 68.0123 10.0382L67.6125 10.0953C66.3559 10.2523 65.2422 10.8949 64.4711 11.8944C63.7001 12.8939 63.3574 14.1362 63.5144 15.3927L63.7715 17.5203C63.0575 17.1062 62.2436 16.9063 61.4583 16.9206C59.5735 16.9491 57.4316 18.2485 57.1746 21.0329C57.0318 22.4893 57.1889 25.6307 57.346 28.001C56.6035 27.5298 55.7182 27.3156 54.79 27.4298C52.8338 27.6869 51.3917 29.3575 51.4202 31.3137C51.4202 31.4993 51.4916 50.1618 51.4488 52.4179C51.4345 53.1461 51.3917 53.8172 51.306 54.474C50.9919 57.1299 51.4202 62.1989 51.8771 67.5821C52.0199 69.2813 52.177 71.0233 52.2912 72.7225C52.4911 75.464 53.2336 78.0913 54.4616 80.5187V89.4288C54.4616 89.8571 54.8186 90.2141 55.247 90.2141C55.6753 90.2141 56.0323 89.8571 56.0323 89.4288V83.5316L56.118 83.6887C56.2608 83.96 56.5321 84.117 56.8176 84.117C56.9461 84.117 57.0604 84.0885 57.1746 84.0313C57.5601 83.8314 57.7029 83.3602 57.503 82.9747L55.9324 79.9761C54.7329 77.6772 54.0333 75.207 53.8476 72.6082C53.7191 70.909 53.5763 69.1527 53.4193 67.4536C52.9623 62.1561 52.534 57.1585 52.8338 54.674C52.9195 53.9743 52.9623 53.2461 52.9766 52.4607C53.0195 50.1904 52.9481 32.0848 52.9481 31.3137C52.9338 30.1571 53.7905 29.1576 54.9471 29.0148C56.2036 28.8577 57.346 29.743 57.5173 30.9853L59.2593 49.4622C59.3022 49.8905 59.6877 50.2189 60.1161 50.1761C60.5302 50.1333 60.83 49.7906 60.83 49.3908C60.83 49.3622 60.83 49.3479 60.83 49.3194L59.1308 30.7997C59.1165 30.5997 58.5311 23.446 58.7453 21.1757C58.9309 19.2195 60.3445 18.5055 61.5011 18.4913C61.5154 18.4913 61.5297 18.4913 61.544 18.4913C62.6006 18.4913 63.7143 19.0624 64.0999 20.319L67.1841 46.2066C67.2412 46.6349 67.6268 46.9491 68.0551 46.892C68.4835 46.8348 68.7976 46.4493 68.7405 46.0209L65.7705 20.6616C65.7419 20.4332 65.6991 20.2047 65.642 20.0048L65.0708 15.2071C64.9566 14.3647 65.1851 13.5365 65.6991 12.8654C66.2131 12.1943 66.9699 11.7659 67.7981 11.6517L68.1979 11.5946C69.9257 11.3661 71.5249 12.5941 71.7534 14.3361L72.4959 20.0762V20.0905L75.8228 45.7925C75.88 46.2209 76.2655 46.5207 76.7081 46.4779C77.1365 46.4208 77.4364 46.0352 77.3935 45.5926L74.0808 19.8906C73.9809 19.0624 74.2093 18.2342 74.7234 17.5631C75.2374 16.892 75.9942 16.4637 76.8224 16.3494C78.5644 16.121 79.8923 17.1633 80.3778 19.1481L84.6758 46.9205L85.9466 56.1304L84.5044 59.2004C84.3188 59.6002 84.4901 60.0571 84.8757 60.2427C85.2755 60.4283 85.7324 60.257 85.918 59.8715L92.4006 46.0495C93.4573 43.722 94.4996 42.9224 95.9846 43.2794C97.2269 43.5793 98.4834 44.336 98.4406 47.5773L98.4263 47.7059C97.5268 54.4883 91.6438 70.5521 91.5725 70.7377C90.0446 75.1356 85.404 78.6339 82.7767 80.3331L79.1784 82.6606C78.8071 82.889 78.7072 83.3888 78.9499 83.7458C79.107 83.9742 79.3497 84.1027 79.6067 84.1027C79.7495 84.1027 79.9066 84.0599 80.0351 83.9742L82.4197 82.4321V88.4292C82.4197 88.8576 82.7767 89.2146 83.205 89.2146C83.6334 89.2146 83.9904 88.8576 83.9904 88.4292V81.4183C86.8319 79.5335 91.4439 75.8924 93.0575 71.266C93.3002 70.5949 99.0689 54.8596 99.9827 47.9058V47.8915L99.997 47.7201C99.997 47.6916 99.997 47.6773 99.997 47.6487C100.068 44.2932 98.869 42.3656 96.3559 41.7516Z" fill="black"/>
</svg>
