<svg width="100" height="100" viewBox="0 0 100 100" fill="none" xmlns="http://www.w3.org/2000/svg">
<path d="M65.0017 66.435C64.7269 66.435 64.4521 66.3299 64.2432 66.1196L53.6637 55.4797C53.2475 55.0611 53.2497 54.3846 53.6686 53.9688C54.0875 53.5528 54.7646 53.5549 55.1808 53.9737L65.7603 64.6137C66.1764 65.0322 66.1743 65.7087 65.7554 66.1246C65.5468 66.3316 65.2742 66.435 65.0017 66.435Z" fill="black"/>
<path d="M26.425 27.6374C26.1502 27.6374 25.8754 27.5323 25.6665 27.322L1.65611 3.17435C1.23995 2.75576 1.24209 2.07927 1.66102 1.66345C2.07996 1.24743 2.75702 1.24956 3.17318 1.66837L27.1833 25.816C27.5995 26.2346 27.5973 26.9111 27.1784 27.3269C26.9701 27.534 26.6974 27.6374 26.425 27.6374Z" fill="black"/>
<path d="M2.41464 72.9342C2.14219 72.9342 1.86953 72.8308 1.66102 72.6237C1.24209 72.2079 1.23995 71.5314 1.65611 71.1128L18.6976 53.9737C19.1138 53.5551 19.7911 53.5528 20.2098 53.9688C20.6287 54.3846 20.6309 55.0611 20.2147 55.4797L3.17318 72.6188C2.96424 72.8288 2.68944 72.9342 2.41464 72.9342Z" fill="black"/>
<path d="M47.4536 27.6374C47.1811 27.6374 46.9085 27.534 46.7 27.3269C46.281 26.9111 46.2789 26.2346 46.695 25.816L70.7054 1.66859C71.1216 1.25 71.7986 1.24765 72.2175 1.66368C72.6365 2.07949 72.6386 2.75599 72.2225 3.17458L48.2121 27.322C48.0032 27.5323 47.7284 27.6374 47.4536 27.6374Z" fill="black"/>
<path d="M53.8429 66.1506C53.3572 66.1506 52.8694 66.0338 52.4182 65.7972L36.9393 57.6776L21.4604 65.7972C20.4219 66.3417 19.1882 66.2519 18.2398 65.563C17.2907 64.8733 16.8243 63.7267 17.0231 62.5707L19.9777 45.3818L7.46498 33.2122C6.62326 32.3934 6.32579 31.1915 6.6887 30.0748C7.05118 28.959 7.99812 28.1611 9.15956 27.9925L26.4573 25.4846L34.1966 9.83782C34.7163 8.78739 35.7671 8.13483 36.9393 8.13483C38.1114 8.13483 39.1625 8.78739 39.6822 9.83782L47.4217 25.4846L64.7192 27.9925C65.8809 28.1611 66.8276 28.9588 67.1903 30.0748C67.553 31.1912 67.2555 32.3934 66.4138 33.212L53.901 45.3816L56.8556 62.5705C57.0545 63.7265 56.5883 64.8731 55.639 65.5628C55.1027 65.9528 54.4748 66.1506 53.8429 66.1506ZM36.9393 55.4028C37.1099 55.4028 37.2808 55.4436 37.4363 55.5252L53.4124 63.9056C53.8692 64.1449 54.2421 63.9361 54.3811 63.835C54.5206 63.7335 54.8356 63.4429 54.7479 62.9325L51.6979 45.1893C51.6382 44.8423 51.7535 44.4885 52.0059 44.2429L64.9217 31.681C65.2932 31.3199 65.2091 30.8989 65.1559 30.7346C65.1026 30.5707 64.9236 30.1814 64.4119 30.1073L46.5584 27.5188C46.2102 27.4684 45.9091 27.25 45.7532 26.9348L37.7647 10.7848C37.5357 10.3218 37.111 10.272 36.9391 10.272C36.7671 10.272 36.3424 10.322 36.1136 10.7848L28.1253 26.9348C27.9694 27.25 27.6685 27.4684 27.3202 27.5188L9.46643 30.1073C8.9549 30.1814 8.7759 30.5707 8.72244 30.7346C8.66898 30.8989 8.58493 31.3197 8.95639 31.681L21.8723 44.2429C22.1248 44.4885 22.2399 44.8425 22.1802 45.1893L19.1302 62.9325C19.0426 63.4429 19.3576 63.7338 19.497 63.835C19.6362 63.9361 20.0092 64.1455 20.4657 63.9056L36.4419 55.5252C36.598 55.4436 36.7686 55.4028 36.9393 55.4028Z" fill="black"/>
<path d="M36.9393 45.609C33.2193 45.609 30.1929 42.5818 30.1929 38.8607C30.1929 35.1397 33.2193 32.1124 36.9393 32.1124C40.6593 32.1124 43.6857 35.1395 43.6857 38.8607C43.6857 42.5818 40.6593 45.609 36.9393 45.609ZM36.9393 34.2494C34.3985 34.2494 32.3314 36.3182 32.3314 38.8609C32.3314 41.4036 34.3985 43.4724 36.9393 43.4724C39.4801 43.4724 41.5472 41.4036 41.5472 38.8609C41.5472 36.318 39.4801 34.2494 36.9393 34.2494Z" fill="black"/>
<path d="M36.9393 20.2562C36.3488 20.2562 35.87 19.7778 35.87 19.1878V16.3752C35.87 15.7852 36.3488 15.3068 36.9393 15.3068C37.5297 15.3068 38.0085 15.7852 38.0085 16.3752V19.1878C38.0085 19.778 37.5297 20.2562 36.9393 20.2562Z" fill="black"/>
<path d="M36.9393 28.8034C36.3488 28.8034 35.87 28.325 35.87 27.735V24.9224C35.87 24.3325 36.3488 23.854 36.9393 23.854C37.5297 23.854 38.0085 24.3325 38.0085 24.9224V27.735C38.0085 28.325 37.5297 28.8034 36.9393 28.8034Z" fill="black"/>
<path d="M18.2372 33.8502C18.1275 33.8502 18.0161 33.8331 17.9062 33.7974L15.2324 32.9284C14.6708 32.7459 14.3637 32.1429 14.5463 31.5818C14.7289 31.0209 15.3322 30.7141 15.894 30.8964L18.5678 31.7654C19.1294 31.9479 19.4365 32.5508 19.2539 33.112C19.1069 33.5632 18.6878 33.8502 18.2372 33.8502Z" fill="black"/>
<path d="M26.3626 36.4914C26.2529 36.4914 26.1414 36.4743 26.0315 36.4387L23.3577 35.5694C22.7961 35.3869 22.489 34.784 22.6717 34.2228C22.8545 33.6619 23.4574 33.3551 24.0194 33.5374L26.6932 34.4066C27.2548 34.5891 27.5619 35.1921 27.3792 35.7532C27.2323 36.2045 26.8132 36.4914 26.3626 36.4914Z" fill="black"/>
<path d="M23.7273 58.1203C23.5093 58.1203 23.2899 58.054 23.1 57.9164C22.6221 57.5699 22.5158 56.9017 22.8626 56.4243L24.5153 54.1489C24.8622 53.6713 25.5309 53.5654 26.0086 53.9117C26.4866 54.2583 26.5929 54.9265 26.246 55.4038L24.5934 57.6793C24.3844 57.9673 24.0581 58.1203 23.7273 58.1203Z" fill="black"/>
<path d="M28.749 51.2058C28.5311 51.2058 28.3117 51.1395 28.1218 51.0019C27.6438 50.6553 27.5375 49.9872 27.8844 49.5098L29.537 47.2344C29.8839 46.7568 30.5526 46.6508 31.0304 46.9972C31.5083 47.3438 31.6146 48.012 31.2677 48.4893L29.6151 50.7647C29.4062 51.0526 29.0798 51.2058 28.749 51.2058Z" fill="black"/>
<path d="M50.1513 58.1203C49.8205 58.1203 49.4942 57.9673 49.285 57.6793L47.6324 55.4038C47.2855 54.9263 47.3918 54.2581 47.8697 53.9117C48.3477 53.5654 49.0164 53.6713 49.3631 54.1489L51.0157 56.4243C51.3626 56.9019 51.2563 57.5701 50.7784 57.9164C50.5887 58.054 50.369 58.1203 50.1513 58.1203Z" fill="black"/>
<path d="M45.1297 51.2058C44.7988 51.2058 44.4725 51.0528 44.2633 50.7647L42.6107 48.4893C42.2638 48.0117 42.3701 47.3436 42.8481 46.9972C43.326 46.6506 43.9947 46.7568 44.3414 47.2344L45.9941 49.5098C46.3409 49.9874 46.2346 50.6555 45.7567 51.0019C45.567 51.1395 45.3474 51.2058 45.1297 51.2058Z" fill="black"/>
<path d="M55.6414 33.8502C55.1908 33.8502 54.7719 33.5634 54.6247 33.112C54.4421 32.5508 54.7492 31.9481 55.3108 31.7654L57.9846 30.8964C58.5464 30.7137 59.1494 31.0207 59.3323 31.5818C59.5149 32.1429 59.2078 32.7457 58.6462 32.9284L55.9724 33.7974C55.8625 33.8331 55.7509 33.8502 55.6414 33.8502Z" fill="black"/>
<path d="M47.516 36.4915C47.0654 36.4915 46.6465 36.2047 46.4994 35.7532C46.3167 35.1921 46.6238 34.5893 47.1854 34.4066L49.8592 33.5374C50.4208 33.3551 51.0241 33.6618 51.2069 34.2229C51.3896 34.784 51.0825 35.3868 50.5209 35.5694L47.8471 36.4387C47.7372 36.4744 47.6255 36.4915 47.516 36.4915Z" fill="black"/>
<path d="M93.6738 100H51.4723C49.7035 100 48.2645 98.5622 48.2645 96.7949V90.568C48.2645 88.8006 49.7035 87.3628 51.4723 87.3628H93.6736C95.4424 87.3628 96.8814 88.8006 96.8814 90.568V96.7949C96.8816 98.5622 95.4426 100 93.6738 100ZM51.4723 89.4996C50.8827 89.4996 50.403 89.9788 50.403 90.568V96.7949C50.403 97.384 50.8827 97.8632 51.4723 97.8632H93.6736C94.2632 97.8632 94.7428 97.384 94.7428 96.7949V90.568C94.7428 89.9788 94.2632 89.4996 93.6736 89.4996H51.4723Z" fill="black"/>
<path d="M51.5959 89.4996C51.0054 89.4996 50.5266 89.0212 50.5266 88.4312V84.9175C50.5266 72.7714 60.4167 62.8895 72.5729 62.8895C81.1705 62.8895 89.0413 67.9374 92.6246 75.7496C92.8706 76.2859 92.6349 76.9201 92.0981 77.1658C91.5611 77.4113 90.9266 77.1761 90.6807 76.6397C87.4447 69.5848 80.3371 65.0263 72.5731 65.0263C61.5959 65.0263 52.6654 73.9494 52.6654 84.9175V88.4312C52.6651 89.0214 52.1865 89.4996 51.5959 89.4996Z" fill="black"/>
<path d="M72.5729 73.6398C71.9825 73.6398 71.5037 73.1613 71.5037 72.5714V57.0201C71.5037 56.4301 71.9825 55.9517 72.5729 55.9517C73.1634 55.9517 73.6422 56.4301 73.6422 57.0201V72.5714C73.6422 73.1616 73.1634 73.6398 72.5729 73.6398Z" fill="black"/>
<path d="M72.5729 57.9167C69.7154 57.9167 67.3906 55.5974 67.3906 52.7466C67.3906 49.8957 69.7154 47.5765 72.5729 47.5765C75.4304 47.5765 77.7552 49.8957 77.7552 52.7466C77.7552 55.5974 75.4306 57.9167 72.5729 57.9167ZM72.5729 49.7135C70.8946 49.7135 69.5292 51.0742 69.5292 52.7468C69.5292 54.4195 70.8946 55.7801 72.5729 55.7801C74.2512 55.7801 75.6167 54.4195 75.6167 52.7468C75.6167 51.0742 74.2512 49.7135 72.5729 49.7135Z" fill="black"/>
<path d="M46.6112 74.2872H1.06927C0.478817 74.2872 0 73.8088 0 73.2188V1.06838C0 0.478419 0.478817 0 1.06927 0H72.8092C73.3997 0 73.8785 0.478419 73.8785 1.06838V42.2466C73.8785 42.8365 73.3997 43.315 72.8092 43.315C72.2188 43.315 71.74 42.8365 71.74 42.2466V2.13675H2.13853V72.1504H46.6112C47.2016 72.1504 47.6805 72.6288 47.6805 73.2188C47.6805 73.8088 47.2019 74.2872 46.6112 74.2872Z" fill="black"/>
<path d="M82.038 75.4895C81.7951 75.4895 81.5509 75.4073 81.3505 75.2389C80.8984 74.8592 80.8403 74.1853 81.2203 73.7336L91.3552 61.6889C91.7352 61.2374 92.4097 61.1791 92.8618 61.5588C93.3139 61.9385 93.372 62.6124 92.992 63.0641L82.8571 75.1088C82.6456 75.36 82.3428 75.4895 82.038 75.4895Z" fill="black"/>
<path d="M94.813 64.4021C93.6372 64.4021 92.4559 64.0064 91.4867 63.1957C90.4258 62.3079 89.775 61.0609 89.6544 59.6844C89.534 58.3085 89.9577 56.9682 90.8479 55.9103C92.6845 53.7278 95.959 53.4419 98.1476 55.2733C99.2085 56.1611 99.8593 57.4081 99.9799 58.7846C100.1 60.1605 99.6764 61.5006 98.7864 62.5585C97.7633 63.7748 96.2929 64.4019 94.813 64.4021ZM94.8196 56.2024C93.9501 56.2024 93.0863 56.5709 92.485 57.2855C91.963 57.9058 91.7143 58.6917 91.785 59.4981C91.8556 60.3051 92.2376 61.0363 92.8601 61.5573C94.1462 62.6338 96.0707 62.4656 97.1498 61.1833C97.6718 60.563 97.9205 59.7771 97.8497 58.9707C97.7791 58.1637 97.3974 57.4323 96.7747 56.9113C96.2052 56.435 95.5106 56.2024 94.8196 56.2024Z" fill="black"/>
<path d="M93.1223 83.1323C93.949 83.1323 94.6192 82.4626 94.6192 81.6365C94.6192 80.8105 93.949 80.1408 93.1223 80.1408C92.2955 80.1408 91.6253 80.8105 91.6253 81.6365C91.6253 82.4626 92.2955 83.1323 93.1223 83.1323Z" fill="black"/>
<path d="M91.7851 16.8803H86.2249C85.6345 16.8803 85.1556 16.4019 85.1556 15.812C85.1556 15.222 85.6345 14.7436 86.2249 14.7436H91.7851C92.3755 14.7436 92.8543 15.222 92.8543 15.812C92.8543 16.4019 92.3755 16.8803 91.7851 16.8803Z" fill="black"/>
<path d="M89.005 19.6581C88.4145 19.6581 87.9357 19.1797 87.9357 18.5898V13.0342C87.9357 12.4442 88.4145 11.9658 89.005 11.9658C89.5954 11.9658 90.0743 12.4442 90.0743 13.0342V18.5898C90.0743 19.1797 89.5954 19.6581 89.005 19.6581Z" fill="black"/>
<path d="M20.3456 92.5925C18.2231 92.5925 16.4962 90.8671 16.4962 88.7464C16.4962 86.6256 18.2231 84.9002 20.3456 84.9002C22.4681 84.9002 24.1949 86.6256 24.1949 88.7464C24.1949 90.8671 22.4683 92.5925 20.3456 92.5925ZM20.3456 87.037C19.4023 87.037 18.6347 87.8038 18.6347 88.7464C18.6347 89.6889 19.4023 90.4558 20.3456 90.4558C21.2889 90.4558 22.0564 89.6889 22.0564 88.7464C22.0564 87.8038 21.2891 87.037 20.3456 87.037Z" fill="black"/>
</svg>
