<svg xmlns="http://www.w3.org/2000/svg" width="237" height="153" fill="none"><circle cx="197" cy="40" r="40" fill="#FDE767" fill-opacity=".8"/><path stroke="#000" stroke-linecap="round" stroke-width="3" d="M36 61.8c.3 9.8 1.4 19 2.5 28.7.2 1.6 1.5 17.5 1.5 13.5"/><path stroke="#000" stroke-linecap="round" stroke-width="3" d="M11.5 53.7c26-1 78.4-11.3 62.7 33.3-8.4 23.7-51.7 78.4-72.2 37.3M116.1 86.3c-11.2 0-23.4-1.7-33.6 3.8-8.2 4.3-10.6 15.2 1.3 16.3 6.8.6 12.7-2.9 16.5-8.3 2.1-3.1 2.1-1.6 4.5 1 9.1 10 22 5.8 33 2.1"/><path stroke="#000" stroke-linecap="round" stroke-width="3" d="M140.6 82.2c0-4.8 2.7 10 6.5 13 6 4.8 9.2-7.2 9.7-11.9.1-1-3.3 11.7-4 13.9-5.2 16.4-12 33-21 47.7-2.6 4.4-4.2 6.6-8.9 6.6"/><path stroke="#E69211" stroke-linecap="round" d="M153.5 36c0 13.5 9.2 40.2 32 49"/><path stroke="#E69211" stroke-linecap="round" d="M158 35c2 11.5 3.8 36.6 39 49"/><path stroke="#E69211" stroke-linecap="round" d="M163 21c-2.2 16.7 4 43.5 27.5 55"/><path stroke="#E69211" stroke-linecap="round" d="M170.5 16c-4.8 17.8-3 54.9 43 60.5"/><path stroke="#E69211" stroke-linecap="round" d="M183.5 11A53.7 53.7 0 0 0 169 28.5M193 11c-5.5 4-12 9-16 16.5M202 13.5A63 63 0 0 0 173 51"/><path stroke="#E69211" stroke-linecap="round" d="M174 48c9.8 4.5 33.7 8.7 50.5-10.5"/><path stroke="#E69211" stroke-linecap="round" d="M181.5 57c13.5 3 32 0 44.5-11.5M183 64c8 1.7 27.8 2 43-10M198 71c5.5.3 16.4 0 24-6M178.5 38a31 31 0 0 1 2 12M183 31.5c2 3.5 4 7 4 15.5M187.5 25.5a39.4 39.4 0 0 1 5.5 26"/><circle cx="189" cy="48" r="37.5" stroke="#E69211"/><path stroke="#E69211" stroke-linecap="round" d="M193 21a46.7 46.7 0 0 1 7 30M201 22c3.3 3.7 7 15.5 5 27.5M205 14c3 3.5 8.8 14.8 8 32M213 19.5a39 39 0 0 1 7 22.5"/><path fill="#000" d="m167.3 136-.3-.1-.1-.2V133c0-.1-.4-.3-1-.4l-1.7-.2-.2.3v.4c-.3.7-.4 1.5-.6 2.3l-.1.4c0 .1 0 .2-.2.2l-.3-.1-.1-.3.2-1a36 36 0 0 0 .7-3.2l.7-3.3.1-.7a71 71 0 0 1 1.4-6c0-.3.2-.4.3-.4.2 0 .3 0 .4.2l.3 2 .4 3.6.3 3.3a41.5 41.5 0 0 0 .2 5.3v.4l-.4.2Zm-.8-3.9c.2 0 .4 0 .4-.2a55 55 0 0 0-.6-8.7l-.1-.8v-.2l-.1-.2a78 78 0 0 1-1.4 7.5l-.2.7-.3 1.5v.1c.6.2 1.2.3 2 .3H166.5Zm7 4.1-.5-1.3a34.4 34.4 0 0 1-1-4.8c-.1-.7-.3-1-.4-1-.4 0-.5 0-.5.3a88.3 88.3 0 0 0 .3 6.4l-.1.4h-.3l-.2-.2a437.6 437.6 0 0 1-.1-13.2l.3-.1c.6 0 1.2.1 1.6.5.4.3.6.8.6 1.4v1.5c0 .2 0 .6-.2 1l-.6 1.2-.2.5a181.6 181.6 0 0 0 1.6 7.5h-.2Zm-2.3-7.6c.2 0 .5-.1.7-.4l.5-1 .3-2a4 4 0 0 0-.2-1.3c-.2-.5-.6-.7-1.2-.7l-.1.2-.1.3a65.2 65.2 0 0 0 0 4.8Zm6.4 7.1v-.7a11.1 11.1 0 0 1 0-1v-.9a109.9 109.9 0 0 0-.5-9.8h-1.6c-.3-.1-.4-.2-.4-.4 0-.1.1-.2.3-.2a27.1 27.1 0 0 1 3.5.2h.9c.2 0 .3 0 .3.2l-.1.2-.3.1H177.9v.4c0 1.3 0 3.2.2 5.8a124.7 124.7 0 0 1 0 6.2h-.5Zm4.8-11.7v-.3l.4-2.1c.2-.6.4-1 .6-1l.2.1.1.2a2.6 2.6 0 0 1-.1 1l-.1.4-.6 1.4c-.1.3-.2.4-.4.4v-.1Zm3.8 12.2a1 1 0 0 1-.4-.1l-.3-.3.1-.2h.4l.4.1c.3 0 .5 0 .7-.3.3-.2.4-.5.6-1l.2-1.9c0-.9-.2-1.9-.8-3a46.2 46.2 0 0 1-1.3-2.6l-.3-1.6c0-.5.2-1 .4-1.7l.5-.8c.2-.2.5-.3.7-.3l.5.2c.2.1.3.3.3.4 0 .1-.1.2-.3.2l-.2-.1h-.2c-.2 0-.4 0-.5.2-.2.1-.3.3-.4.6-.2.5-.2 1-.2 1.4v.7l.1.2v.2l.1.4.1.3.2.4.1.2.2.2.2.5a13.3 13.3 0 0 1 1.1 2.3 8 8 0 0 1 .3 2 6 6 0 0 1-.3 1.8c-.2.6-.6 1-1 1.4l-1 .2Zm1.6-13Zm9.1 13.1a2 2 0 0 1-1.2-.4c-.4-.3-.7-.6-.9-1l-.5-3.3a53 53 0 0 1-.2-4.2v-1a24.2 24.2 0 0 1 .1-3.1l.2-.9.4-.7c.3-.4.7-.7 1.3-.9a4 4 0 0 1 1 0l.8.1c.2.2.4.4.4.6 0 .1-.1.2-.3.2-.1 0-.3 0-.5-.2l-.5-.1c-.4 0-.8 0-1 .2l-.8.6a3 3 0 0 0-.3 1l-.2 1-.1 1.2v2.2a42.7 42.7 0 0 0 .9 7.2c.1.2.4.4.7.5.3.2.6.2 1 .2.6 0 1-.2 1.4-.5 0-.2.2-.3.3-.3.2 0 .2.1.2.3 0 .2 0 .5-.2.6-.1.2-.3.3-.6.4-.4.2-.9.3-1.4.3Zm7 0-.5-1.4a34.4 34.4 0 0 1-1-4.8c-.1-.7-.3-1-.4-1-.4 0-.5 0-.5.3a88.3 88.3 0 0 0 .3 6.4l-.1.4h-.3l-.2-.2a441.5 441.5 0 0 1-.1-13.2l.3-.1c.6 0 1.2.1 1.6.5.4.3.6.8.6 1.4v1.5c0 .2 0 .6-.2 1l-.6 1.2-.2.5a189 189 0 0 0 1.6 7.5h-.2Zm-2.3-7.7c.3 0 .5-.1.7-.4l.5-1 .3-2a4 4 0 0 0-.2-1.3c-.2-.5-.6-.7-1.2-.7l-.1.2-.1.3a65.2 65.2 0 0 0 0 4.8h.1Zm7.2 7.8c-1.6 0-2.4-2.5-2.4-7.4v-.7c0-3.7.5-5.6 1.5-5.6l.3.1 1.2.3c.3 0 .5.3.8.8.3.4.5 1 .6 1.9l.2 2.4v2.5a19.2 19.2 0 0 1-.5 4c0 .3-.2.6-.4.8a2 2 0 0 1-.5.6c-.3.2-.5.3-.8.3Zm-.1-.6c.5 0 1-.4 1.2-1.1a9 9 0 0 0 .4-2.3 30.6 30.6 0 0 0-.1-6.6l-.1-.2c0-.7-.1-1.2-.5-1.6-.3-.4-.7-.6-1.1-.6-.7 0-1 .3-1.1.8l-.1.9-.1 2-.1 1v2.5a16.8 16.8 0 0 0 .4 3.7l.5 1c.2.3.4.5.7.5Zm6.4.3a2 2 0 0 1-.7-.3l-.5-.7c-.2-.5-.4-1.3-.5-2.3V129.4a38 38 0 0 1 .3-4c0-.5.2-1 .3-1.3l.7-1 .5-.2.5-.2h1.1v.2l-.2.4h-.8c-.3 0-.5.1-.7.4-.2.2-.4.5-.5.9l-.2 1.2a11.2 11.2 0 0 0-.2 2v2.1l-.1 2 .1 1.7c0 .5.3 1 .6 1.4.3.4.8.7 1.4.7l.5-.2c.2 0 .3 0 .3.2 0 0 0 .2-.3.3-.1.2-.3.3-.5.3h-.6l-.5-.2Zm7.8.1c0-.1-.2-.2-.6-.2v-5.3l-.1-.1V129.7l-.3-.1h-1.1l-.6-.2-.2.1a36.4 36.4 0 0 1 0 2.5v.1a34.4 34.4 0 0 0 0 3.4v.3l-.2.2c-.3 0-.5-.4-.5-1.2V129l.1-1.3v-2.3l-.1-.8V123l.3-.1c.2 0 .4.4.4 1.1a139.6 139.6 0 0 1 0 5s.4.2 1.4.2h.1c.3 0 .5 0 .6-.2l.1-.5-.1-2.8a46.4 46.4 0 0 1 0-3h.4l.2.1a131.6 131.6 0 0 0 .2 9.3c0 1.6 0 3 .2 4l-.2.2Zm-1.2-7.4Zm4.5 7.5c-.2 0-.3-.2-.4-.5v-.5l.1-.9v-2.6a109.4 109.4 0 0 1 0-6v-2.4l.1-.4.5-.2.3.1.6.1.8.2c.3 0 .4.2.4.3 0 .1-.1.3-.4.4a6 6 0 0 0-1.6-.4v1a26.2 26.2 0 0 1-.1 3.1c0 .4 0 .6.3.6h.6c.5 0 .8 0 .8.3l-.1.4-.3.1c-.2 0-.4 0-.5-.2H226.5v.1a18.2 18.2 0 0 1 0 3v3c0 .3.1.5.3.6l.6.2h.8c.4 0 .6 0 .6.2s-.3.4-1 .4h-1.6Zm1.8-13.8-.6-3a24 24 0 0 0-.8 2.6l-.4.5-.4-.3.4-1.1.7-1.5.6-.7c.2 0 .3.1.3.4 0 .4.1 1 .4 1.6l.2.7v.1l.1.3V122.4h.1c0 .2-.1.3-.4.3l-.2-.2Z"/></svg>